<?xml version="1.0" standalone="no"?><!DOCTYPE svg PUBLIC "-//W3C//DTD SVG 1.1//EN" "http://www.w3.org/Graphics/SVG/1.1/DTD/svg11.dtd"><svg t="1702983103801" class="icon" viewBox="0 0 1024 1024" version="1.1" xmlns="http://www.w3.org/2000/svg" p-id="6536" xmlns:xlink="http://www.w3.org/1999/xlink" width="16" height="16"><path d="M956.84 82.14A32 32 0 0 0 928 64H638.76a95.51 95.51 0 0 0-75 36l-53.19 66.48-50-65A96.6 96.6 0 0 0 384.49 64H96a32 32 0 0 0-25.36 51.51L384 522.88V928a32 32 0 0 0 32 32h256a32 32 0 0 0 32-32V427.23L953 116a32 32 0 0 0 3.84-33.86zM384.49 128a32.21 32.21 0 0 1 25.36 12.49l59.6 77.51L429 268.47 321 128z m-144.25 0l162.61 211.39a32 32 0 0 0 50.69 0.91l81.53-101.91 0.38-0.48L613.77 140a31.87 31.87 0 0 1 25-12h62.66L425.91 472.39 161 128zM640 896h-64V587.23l64-80zM519 556a31.87 31.87 0 0 0-7 20v320h-64V547.22L783.38 128h78z" fill="#5C5C66" p-id="6537"></path></svg>