<?xml version="1.0" standalone="no"?><!DOCTYPE svg PUBLIC "-//W3C//DTD SVG 1.1//EN" "http://www.w3.org/Graphics/SVG/1.1/DTD/svg11.dtd"><svg t="1702983083254" class="icon" viewBox="0 0 1024 1024" version="1.1" xmlns="http://www.w3.org/2000/svg" p-id="6397" xmlns:xlink="http://www.w3.org/1999/xlink" width="16" height="16"><path d="M873.52 65.44A31.89 31.89 0 0 0 864 64H416a288 288 0 0 0-288 288v73.34a224 224 0 0 0 123.82 200.35L280.45 640H160a32 32 0 0 0-32 32v256a32 32 0 0 0 32 32h448a288 288 0 0 0 288-288v-73.34a224 224 0 0 0-123.82-200.35L743.55 384H864a32 32 0 0 0 32-32V96a32 32 0 0 0-22.48-30.56zM416 128h416v64H352a222.38 222.38 0 0 0-122.87 36.64C269.26 168.05 338 128 416 128zM192 425.34V416c0-88.22 71.78-160 160-160h480v64H367.11a111.11 111.11 0 0 0-49.69 210.49L536.45 640h-112.9l-143.1-71.55A159.13 159.13 0 0 1 192 425.34z m220.62-7.25L678 550.76A47.11 47.11 0 0 1 656.89 640h-18.33a51.49 51.49 0 0 0-27.18-34.09L346 473.24A47.11 47.11 0 0 1 367.11 384h18.33a51.49 51.49 0 0 0 27.18 34.09zM608 896H192v-64h480a222.38 222.38 0 0 0 122.87-36.64C754.74 856 686 896 608 896z m224-297.34V608c0 88.22-71.78 160-160 160H192v-64h464.89a111.11 111.11 0 0 0 49.69-210.49L487.56 384h112.89l143.1 71.55A159.13 159.13 0 0 1 832 598.66z" fill="#5C5C66" p-id="6398"></path></svg>