<?xml version="1.0" standalone="no"?><!DOCTYPE svg PUBLIC "-//W3C//DTD SVG 1.1//EN" "http://www.w3.org/Graphics/SVG/1.1/DTD/svg11.dtd"><svg t="1702983028979" class="icon" viewBox="0 0 1024 1024" version="1.1" xmlns="http://www.w3.org/2000/svg" p-id="6258" xmlns:xlink="http://www.w3.org/1999/xlink" width="16" height="16"><path d="M864 64H608a32 32 0 0 0-32 32v242.74L338.75 101.49A127.15 127.15 0 0 0 248.24 64H160a32 32 0 0 0-32 32v832a32 32 0 0 0 32 32h256a32 32 0 0 0 32-32V685.25l237.25 237.26A127.15 127.15 0 0 0 775.76 960H864a32 32 0 0 0 32-32V96a32 32 0 0 0-32-32z m-160 64v530.75l-64-64V128z m-512 0h56.24a64.54 64.54 0 0 1 7.76 0.48V896h-64z m192 768h-64V173.25l256 256v101.5L438.63 393.37A32 32 0 0 0 384 416v480z m448 0h-56.24a63.58 63.58 0 0 1-45.25-18.75L448 594.74V493.25l137.37 137.37 128 128A32 32 0 0 0 768 736V128h64z" fill="#5C5C66" p-id="6259"></path></svg>