<?xml version="1.0" standalone="no"?><!DOCTYPE svg PUBLIC "-//W3C//DTD SVG 1.1//EN" "http://www.w3.org/Graphics/SVG/1.1/DTD/svg11.dtd"><svg t="1702891932344" class="icon" viewBox="0 0 1024 1024" version="1.1" xmlns="http://www.w3.org/2000/svg" p-id="26403" xmlns:xlink="http://www.w3.org/1999/xlink" width="16" height="16"><path d="M345.072 402.704c3.2 2.88 42.176 40.896 61.36 84.688 23.968 55.616 20.128 99.712 20.128 99.712s42.192-4.48 48.896-39.632c3.52-17.888-7.024-66.144-30.352-105.456-29.408-49.536-74.464-88.528-77.664-98.752-5.12-16.64-19.168-92.048-4.48-178.336 11.2-63.92 52.096-135.84 62.016-148.928 0 0-30.688 32.272-59.136 79.584-21.088 35.472-40.592 81.168-46.656 117.6-16.304 93.328-6.08 150.848 4.8 168.112 10.224 15.648 14.688 15.648 21.088 21.408z m-31.968 80.848c7.68 70.32 69.04 106.112 69.04 106.112-23.008-78.304-69.04-106.112-69.04-106.112z m127.52 191.76c-17.568-12.48-47.296 8.32-47.296 8.32s11.52-1.28 18.224 3.504c6.704 4.8 7.024 17.584 10.864 24.288 3.84 6.72 16.928 4.16 21.408 5.44 4.48 1.28 10.56 11.184 12.144 16.288 1.6 5.12 23.328 61.68 23.328 61.68-3.52-58.8-21.088-107.056-38.672-119.52z m281.888-232.336s-26.208 35.472-50.816 66.144c-18.544 23.008-36.432 43.152-38.992 45.696-2.56 2.88-6.08 7.04-10.88 10.24-6.384 4.16-13.408 5.76-17.568 3.52-6.4-3.52-8-14.4-6.72-20.144 0.64-2.88 6.4-43.776 33.568-85.328 20.128-31.008 52.416-62 67.424-75.744 5.44-5.12 9.28-11.824 10.56-19.488 4.8-27.488 14.064-98.128-3.84-164.272-10.56-38.992-25.888-77.344-44.736-108.336-24.608-41.552-52.736-70.64-58.496-76.384 0 0 14.08 18.208 28.128 46.976 13.104 26.848 26.208 62.96 33.872 101.632 15.36 79.888 0.96 167.456-3.52 176.416-4.784 9.904-48.896 47.936-77.968 92.672-26.528 41.232-36.432 84.688-34.512 103.552 1.28 14.688 4.48 33.232 11.824 49.216 6.4 13.744 17.248 25.248 23.328 37.072 6.08 11.824 8 23.968 7.04 33.552-0.64 7.36-3.84 18.848-8.32 28.448-5.12 10.544-11.84 19.488-17.584 31.952-10.864 22.368-19.808 46.656-22.368 70.944-5.12 49.536 14.064 84.704 10.88 97.168-1.6 6.08-8.96 14.368-15.04 20.768-6.08 6.72-10.224 11.504-12.784 11.504-5.12 0-36.112-29.088-36.112-29.088s-0.96 13.12 1.6 16.944c2.56 3.84 22.048 12.784 27.168 19.488 5.12 7.04 8.32 18.864 6.08 23.968-2.24 5.12-7.36 11.84-15.68 11.52-8.288-0.32-20.448-0.32-20.448-0.32s10.24 3.84 18.864 5.76c8.64 1.904 18.848 6.704 19.488 15.648 0.64 8.96-0.64 19.808-5.76 23.328 0 0 21.76-7.36 33.888-17.584 12.16-10.224 16.624-14.048 24.608-34.512 8-20.448 25.888-68.064 31.648-113.12 5.76-45.072 10.864-105.152 13.408-114.416 2.88-9.6 17.92-25.568 19.184-31.968 1.28-6.4 0-9.92 0-9.92s15.344-2.224 18.544-5.104c-5.44-4.48-27.488-15.968-26.528-35.152 0.32-8.32 4.8-22.368 17.568-36.432 16.624-18.208 42.832-36.432 49.216-47.296 5.44-8.96 15.664-31.008 19.824-54.976 4.8-26.512 3.2-55.28 0.96-64.544z" fill="#026796" p-id="26404"></path></svg>