<?xml version="1.0" standalone="no"?><!DOCTYPE svg PUBLIC "-//W3C//DTD SVG 1.1//EN" "http://www.w3.org/Graphics/SVG/1.1/DTD/svg11.dtd"><svg t="1702890172515" class="icon" viewBox="0 0 1024 1024" version="1.1" xmlns="http://www.w3.org/2000/svg" p-id="5814" width="16" height="16" xmlns:xlink="http://www.w3.org/1999/xlink"><path d="M863.774118 898.951529c49.392941-0.481882 51.802353-38.068706 51.802353-66.800941v-367.435294c0-24.094118 10.24-42.164706 34.93647-42.164706 24.094118 0 34.334118 18.070588 34.334118 42.164706v379.482353c6.625882 66.319059-42.164706 120.470588-115.049412 120.470588H142.757647c-66.258824 0-121.072941-48.188235-121.072941-120.470588v-722.823529c0-66.258824 54.814118-120.410353 121.072941-120.410353h381.891765c24.094118 0 42.164706 10.179765 42.164706 34.334117 0 24.094118-18.070588 34.334118-42.164706 34.334118H142.757647c-49.392941 0-61.44 15.179294-61.44 51.802353v710.776471c0 47.043765 24.094118 66.740706 61.44 66.740705h721.016471zM734.870588 187.693176v-144.564705c0-24.094118 12.649412-42.164706 37.345883-42.164706 24.094118 0 37.345882 18.070588 37.345882 42.164706v144.564705h133.12c24.094118 0 42.164706 15.058824 42.164706 39.152942s-18.070588 39.152941-42.164706 39.152941h-133.12v126.494117c0 24.094118-13.251765 42.164706-37.345882 42.164706-24.696471 0-37.345882-18.070588-37.345883-42.164706v-132.517647H591.510588c-24.696471 0-42.767059-12.047059-42.767059-36.141176 0-23.853176 18.070588-35.900235 42.767059-36.141177h143.36z" fill="#666666" p-id="5815"></path></svg>