<?xml version="1.0" standalone="no"?><!DOCTYPE svg PUBLIC "-//W3C//DTD SVG 1.1//EN" "http://www.w3.org/Graphics/SVG/1.1/DTD/svg11.dtd"><svg t="1702890388823" class="icon" viewBox="0 0 1228 1024" version="1.1" xmlns="http://www.w3.org/2000/svg" p-id="7750" xmlns:xlink="http://www.w3.org/1999/xlink" width="19.1875" height="16"><path d="M641.5872 204.8c-20.1728 0-32.9728-5.6832-52.224-17.7664a266.9056 266.9056 0 0 0-8.8064-5.4272L390.6048 62.464A85.6064 85.6064 0 0 0 348.2624 51.2H102.4512c-28.3136 0-51.2 22.9376-51.2512 51.2v819.1488c0 28.3136 22.9376 51.2 51.2 51.2512h1023.9488c28.3136 0 51.2-22.9376 51.2512-51.2V256.0512c0-28.3136-22.9376-51.2-51.2-51.2512H641.536z m484.864-51.2A102.5024 102.5024 0 0 1 1228.8 256v665.6a102.5024 102.5024 0 0 1-102.4 102.4H102.4a102.5024 102.5024 0 0 1-102.4-102.4V102.4a102.5024 102.5024 0 0 1 102.4-102.4h245.8624c23.7568 0 47.104 6.2464 67.7376 18.0224L607.744 138.24c10.2912 5.888 22.016 15.36 33.8432 15.36h484.864zM0 358.4h1228.8v51.2H0V358.4z" fill="#333333" p-id="7751"></path></svg>