<?xml version="1.0" standalone="no"?><!DOCTYPE svg PUBLIC "-//W3C//DTD SVG 1.1//EN" "http://www.w3.org/Graphics/SVG/1.1/DTD/svg11.dtd"><svg t="1703083419130" class="icon" viewBox="0 0 1024 1024" version="1.1" xmlns="http://www.w3.org/2000/svg" p-id="6346" width="16" height="16" xmlns:xlink="http://www.w3.org/1999/xlink"><path d="M534.869333 490.496a1403.306667 1403.306667 0 0 0 50.858667-25.813333c16.042667-8.618667 29.013333-15.061333 38.570667-19.029334 9.557333-3.925333 17.066667-6.058667 22.869333-6.058666 9.557333 0 17.749333 3.2 24.917333 10.026666 6.826667 6.826667 10.581333 15.061333 10.581334 25.088 0 5.76-1.706667 11.818667-5.12 17.92-3.413333 6.101333-7.168 10.069333-10.922667 11.861334-35.157333 14.677333-74.410667 25.429333-116.736 31.872 7.850667 7.168 17.066667 17.237333 28.330667 29.781333 11.264 12.544 17.066667 18.986667 17.749333 20.053333 4.096 6.101333 9.898667 13.653333 17.408 22.613334 7.509333 8.96 12.629333 15.786667 15.36 20.778666 2.730667 5.034667 4.437333 11.093333 4.437333 18.304a33.706667 33.706667 0 0 1-9.898666 24.021334 33.834667 33.834667 0 0 1-25.6 10.410666c-10.24 0-22.186667-8.618667-35.157334-25.472-12.970667-16.512-30.037333-46.933333-50.517333-91.050666-20.821333 39.424-34.816 65.962667-41.642667 78.506666-7.168 12.544-13.994667 22.186667-20.48 28.672a30.976 30.976 0 0 1-22.528 9.685334 32.256 32.256 0 0 1-25.258666-11.093334 35.413333 35.413333 0 0 1-9.898667-23.68c0-7.893333 1.365333-13.653333 4.096-17.578666 25.258667-35.84 51.541333-67.413333 78.848-93.568a756.650667 756.650667 0 0 1-61.44-12.544 383.061333 383.061333 0 0 1-57.685333-20.48c-3.413333-1.749333-6.485333-5.717333-9.557334-11.818667a30.208 30.208 0 0 1-5.12-16.853333 32.426667 32.426667 0 0 1 10.581334-25.088 33.152 33.152 0 0 1 24.234666-10.026667c6.485333 0 14.677333 2.133333 24.576 6.101333 9.898667 4.266667 22.186667 10.026667 37.546667 18.261334 15.36 7.893333 32.426667 16.853333 51.882667 26.538666-3.413333-18.261333-6.485333-39.082667-8.874667-62.378666-2.389333-23.296-3.413333-39.424-3.413333-48.042667 0-10.752 3.072-19.712 9.557333-27.264A30.677333 30.677333 0 0 1 512.341333 341.333333c9.898667 0 18.090667 3.925333 24.576 11.477334 6.485333 7.893333 9.557333 17.92 9.557334 30.464 0 3.584-0.682667 10.410667-1.365334 20.48-0.682667 10.368-2.389333 22.570667-4.096 36.906666-2.048 14.677333-4.096 31.146667-6.144 49.834667z" fill="#FF3838" p-id="6347"></path></svg>