<?xml version="1.0" standalone="no"?><!DOCTYPE svg PUBLIC "-//W3C//DTD SVG 1.1//EN" "http://www.w3.org/Graphics/SVG/1.1/DTD/svg11.dtd"><svg t="1703223859721" class="icon" viewBox="0 0 1024 1024" version="1.1" xmlns="http://www.w3.org/2000/svg" p-id="6198" xmlns:xlink="http://www.w3.org/1999/xlink" width="16" height="16"><path d="M883.712 205.632c-4.352-3.84-9.92-5.44-15.616-5.952L486.592 65.088c-4.736-1.408-9.664-1.408-14.464 0L90.624 199.68C85.312 200.192 80.128 201.856 75.84 205.632 68.928 211.712 64 221.056 64 230.912l0 518.976c0 14.656 9.536 27.392 22.016 30.976l382.4 129.984c1.216 0.512 2.24 0.896 3.456 1.216l1.152 0.384c2.304 0.704 4.608 1.024 6.976 1.024s5.12-0.32 7.424-1.024l1.536-0.512c0.64-0.256 1.216-0.448 1.856-0.704l383.104-130.368C886.464 777.344 896 764.544 896 749.952L896 230.912C896 221.056 890.56 211.712 883.712 205.632zM479.296 129.152l284.416 103.808L479.872 331.904 296.576 268.16 200 233.984 479.296 129.152zM128 275.52l185.152 65.344L448 390.592l0 449.664L128 725.12 128 275.52zM512 840.256 512 390.592l163.968-60.48L832 275.008l0 450.112L512 840.256z" p-id="6199"></path></svg>